<?xml version="1.0" encoding="UTF-8"?>
<!DOCTYPE svg PUBLIC "-//W3C//DTD SVG 1.1//EN" "http://www.w3.org/Graphics/SVG/1.1/DTD/svg11.dtd">
<!-- Creator: CorelDRAW 2020 (64-Bit) -->
<svg xmlns="http://www.w3.org/2000/svg" xml:space="preserve" width="3508px" height="2480px" version="1.1" style="shape-rendering:geometricPrecision; text-rendering:geometricPrecision; image-rendering:optimizeQuality; fill-rule:evenodd; clip-rule:evenodd"
viewBox="0 0 3508 2480.4"
 xmlns:xlink="http://www.w3.org/1999/xlink"
 xmlns:xodm="http://www.corel.com/coreldraw/odm/2003">
 <defs>
  <style type="text/css">
   <![CDATA[
    .str0 {stroke:white;stroke-width:2.36;stroke-miterlimit:22.9256}
    .str1 {stroke:white;stroke-width:0.9;stroke-miterlimit:22.9256}
    .fil1 {fill:white}
    .fil0 {fill:white;fill-rule:nonzero}
   ]]>
  </style>
 </defs>
 <g id="Слой_x0020_1">
  <metadata id="CorelCorpID_0Corel-Layer"/>
  <path class="fil0 str0" d="M1028.16 895.1l20.12 14.44 19.94 13.28 0.05 0.02c-12.93,18.85 -27.01,36.59 -42.09,53.15 -15.12,16.61 -31.29,32.08 -48.34,46.33 -87.79,73.4 -199.58,115.03 -316.7,115.03l-0.02 0 0 -0.1c-136.37,-0.01 -259.79,-55.24 -349.08,-144.54 -89.27,-89.27 -144.51,-212.68 -144.52,-349.03l-0.1 0 0 -0.05 0 -0.02 0.1 0c0.01,-136.37 55.24,-259.8 144.54,-349.08 89.27,-89.28 212.68,-144.51 349.03,-144.52l0 -0.1 0.05 0 0.04 0 0 0.1c81.25,0 159.9,20 229.7,56.71 11.24,5.9 22.37,12.33 33.36,19.25 55.93,35.22 104.99,81.79 143.49,137.75l-19.38 13.51 -20.75 14.2c-34.72,-50.45 -78.94,-92.44 -129.34,-124.18 -9.69,-6.11 -19.74,-11.89 -30.11,-17.35 -62.98,-33.11 -133.85,-51.16 -206.97,-51.16l0 0.09 -0.04 0 -0.05 0 0 -0.09c-122.71,0.01 -233.9,49.84 -314.44,130.38 -80.56,80.55 -130.4,191.75 -130.4,314.49l0.09 0 0 0.02 0 0.05 -0.09 0c0.01,122.71 49.84,233.9 130.38,314.44 80.55,80.56 191.76,130.4 314.49,130.4l0 -0.1 0.02 0c105.59,0 206.32,-37.48 285.36,-103.55 15.39,-12.87 29.96,-26.81 43.56,-41.75 13.64,-14.98 26.32,-30.94 37.88,-47.79l0.05 0.02 0.15 -0.21 0.02 -0.04z"/>
  <path class="fil1" d="M320.14 491.64l0 0 0 303.94 0 0 0 50.21 300.6 0c111.2,0 202.18,-90.98 202.18,-202.18l0 0c0,-111.21 -90.98,-202.19 -202.18,-202.19l-300.6 0 0 50.22zm50.14 -0.75l250.46 0.75c83.58,0.25 151.97,68.38 151.97,151.97l0 0c0,83.58 -68.39,152.41 -151.97,151.97l-250.06 -1.32 -0.4 -303.37z"/>
  <path class="fil1" d="M818.75 491.64l227.19 0 0 -50.22 -227.19 0c-111.2,0 -202.18,90.98 -202.18,202.19l0 0c0,111.2 90.98,202.18 202.18,202.18l227.19 0 0 -50.21 -227.19 0c-83.58,0 -151.97,-68.39 -151.97,-151.97l0 0c0,-83.59 68.39,-151.97 151.97,-151.97z"/>
  <path class="fil0 str1" d="M818.75 490.36l225.91 0 0 -47.66 -225.91 0 -0.02 0 0 0c-55.24,0 -105.46,22.61 -141.88,59.02 -36.39,36.4 -59,86.62 -59.01,141.84l0.01 0 0 0.05 0 0.02 -0.01 0c0.01,55.24 22.61,105.47 59.03,141.87 36.4,36.41 86.61,59.01 141.83,59.02l0 -0.01 0.05 0 225.91 0 0 -47.66 -225.91 0 -0.02 0 0 0c-42.13,-0.01 -80.44,-17.25 -108.21,-45.02 -27.76,-27.76 -44.99,-66.06 -45.01,-108.17l0 0 0 -0.05 0 -0.03 0 0c0.01,-42.13 17.25,-80.44 45.02,-108.21l0 0c27.76,-27.75 66.06,-44.99 108.17,-45l0 -0.01 0.05 0zm227.19 2.55l-227.19 0 -0.05 0 0 0c-41.41,0.01 -79.06,16.96 -106.37,44.26l0 0c-27.31,27.3 -44.27,64.98 -44.27,106.41l0 0 0 0.03 0 0.05 0 0c0.01,41.41 16.96,79.06 44.26,106.37 27.31,27.31 64.98,44.27 106.41,44.27l0 0 0.02 0 227.19 0 1.27 0 0 1.28 0 50.21 0 1.28 -1.27 0 -227.19 0 -0.05 0 0 -0.01c-55.92,-0.01 -106.77,-22.89 -143.63,-59.75 -36.87,-36.87 -59.77,-87.73 -59.77,-143.68l-0.01 0 0 -0.02 0 -0.05 0.01 0c0.01,-55.93 22.89,-106.78 59.75,-143.64 36.87,-36.87 87.73,-59.76 143.68,-59.77l0 0 0.02 0 227.19 0 1.27 0 0 1.27 0 50.22 0 1.27 -1.27 0z"/>
  <polygon class="fil0" points="1413.88,774.97 1413.88,822.41 1180.52,822.41 1180.52,482.18 1409.56,482.18 1409.56,529.62 1234.18,529.62 1234.18,626.42 1386.08,626.42 1386.08,670.98 1234.18,670.98 1234.18,774.97 "/>
  <path id="1" class="fil0" d="M1685.57 822.41l-52.71 0 0 -138.81c0,-23 -3.75,-39.93 -11.26,-50.63 -7.5,-10.78 -18.6,-16.13 -33.3,-16.13 -10.22,0 -20.37,2.47 -30.43,7.5 -10.06,5.03 -19.09,11.9 -27.07,20.53 -7.99,8.62 -13.74,18.61 -17.25,29.95l0 147.59 -52.71 0 0 -248.7 47.92 0 0 50.31c6.38,-11.1 14.77,-20.68 25.15,-28.75 10.38,-8.06 22.13,-14.29 35.22,-18.77 13.1,-4.39 27,-6.62 41.69,-6.62 15.02,0 27.39,2.71 37.14,8.06 9.74,5.35 17.41,12.78 23,22.04 5.59,9.35 9.42,20.13 11.5,32.35 2.08,12.14 3.11,25.08 3.11,38.65l0 151.43z"/>
  <path id="2" class="fil0" d="M1860.48 827.2c-19.49,0 -37.14,-3.44 -52.95,-10.23 -15.82,-6.78 -29.47,-16.21 -40.97,-28.03 -11.5,-11.9 -20.37,-25.55 -26.6,-40.97 -6.23,-15.33 -9.34,-31.78 -9.34,-49.19 0,-23.4 5.43,-44.81 16.29,-64.21 10.86,-19.41 26.04,-35.06 45.52,-46.88 19.49,-11.9 42.33,-17.81 68.53,-17.81 26.19,0 48.79,5.91 67.8,17.81 19.01,11.82 33.78,27.39 44.32,46.72 10.55,19.32 15.82,40.01 15.82,62.13 0,3.83 -0.16,7.35 -0.48,10.7 -0.32,3.36 -0.64,6.07 -0.96,8.31l-200.78 0c0.96,14.53 5.03,27.23 12.22,38.09 7.19,10.86 16.37,19.33 27.55,25.48 11.18,6.15 23.16,9.26 35.94,9.26 14.06,0 27.4,-3.51 40.01,-10.54 12.62,-7.03 21.17,-16.29 25.64,-27.79l45.04 12.94c-5.43,12.14 -13.65,23.08 -24.67,32.82 -11.03,9.74 -24.04,17.41 -39.06,23 -15.01,5.59 -31.3,8.39 -48.87,8.39zm-75.24 -146.63l151.43 0c-0.96,-14.14 -5.04,-26.52 -12.22,-37.38 -7.19,-10.78 -16.3,-19.25 -27.32,-25.32 -11.02,-6.15 -23.24,-9.18 -36.65,-9.18 -13.1,0 -25.16,3.03 -36.18,9.18 -11.02,6.07 -20.05,14.54 -27.08,25.32 -7.02,10.86 -11.02,23.24 -11.98,37.38z"/>
  <path id="3" class="fil0" d="M2172.9 617.31c-20.44,0.32 -38.57,4.96 -54.38,13.9 -15.82,8.95 -27.08,21.56 -33.79,37.86l0 153.34 -52.71 0 0 -248.7 48.88 0 0 54.15c8.63,-17.25 19.97,-31.07 34.02,-41.45 14.06,-10.38 28.91,-16.06 44.57,-17.01 3.19,0 5.83,0 7.9,0 2.08,0 3.92,0.16 5.51,0.48l0 47.43z"/>
  <path id="4" class="fil0" d="M2307.07 827.2c-16.93,0 -32.42,-3.44 -46.48,-10.3 -14.05,-6.87 -26.11,-16.22 -36.17,-28.04 -10.07,-11.82 -17.89,-25.39 -23.48,-40.73 -5.59,-15.33 -8.39,-31.46 -8.39,-48.4 0,-17.89 2.88,-34.66 8.63,-50.31 5.75,-15.65 13.81,-29.47 24.19,-41.45 10.39,-11.98 22.61,-21.32 36.66,-28.03 14.06,-6.71 29.71,-10.06 46.96,-10.06 20.13,0 37.78,4.71 52.95,14.13 15.18,9.43 27.71,21.8 37.62,37.14l0 -47.44 46.48 0 0 242.15c0,24.11 -5.83,44.64 -17.49,61.49 -11.66,16.77 -27.56,29.63 -47.68,38.58 -20.13,8.86 -42.81,13.33 -68.04,13.33 -27.8,0 -50.8,-4.79 -69.01,-14.37 -18.21,-9.59 -33.7,-22.68 -46.48,-39.3l29.71 -27.79c9.58,13.42 21.96,23.64 37.14,30.67 15.17,7.03 31.38,10.54 48.64,10.54 14.37,0 27.71,-2.55 40.01,-7.59 12.3,-5.11 22.12,-12.93 29.47,-23.56 7.34,-10.62 11.02,-24.03 11.02,-40.25l0 -38.33c-8.95,15.01 -21.25,26.75 -36.9,35.22 -15.65,8.46 -32.1,12.7 -49.36,12.7zm17.26 -42.65c7.98,0 15.65,-1.36 23,-4.07 7.34,-2.72 14.13,-6.39 20.36,-11.02 6.23,-4.64 11.58,-9.91 16.06,-15.82 4.47,-5.91 7.66,-12.22 9.58,-18.93l0 -65.64c-4.16,-10.87 -10.06,-20.37 -17.73,-28.52 -7.67,-8.14 -16.29,-14.45 -25.88,-18.92 -9.58,-4.47 -19.32,-6.71 -29.23,-6.71 -11.5,0 -21.8,2.48 -30.9,7.43 -9.11,4.95 -16.86,11.5 -23.25,19.64 -6.38,8.15 -11.34,17.33 -14.85,27.56 -3.51,10.22 -5.27,20.76 -5.27,31.62 0,11.5 2,22.2 5.99,32.11 3.99,9.9 9.5,18.77 16.53,26.59 7.03,7.83 15.33,13.9 24.92,18.21 9.58,4.31 19.8,6.47 30.67,6.47z"/>
  <path id="5" class="fil0" d="M2517.92 881.34c4.79,0.64 9.5,1.36 14.13,2.16 4.63,0.8 8.39,1.2 11.26,1.2 5.43,0 10.15,-1.68 14.14,-5.03 3.99,-3.28 8.06,-9.43 12.22,-18.29 4.15,-8.87 9.26,-21.64 15.33,-38.42l-103.02 -249.25 55.1 0 76.67 195.91 68.05 -195.91 50.79 0 -113.57 306.92c-3.51,9.26 -8.62,17.73 -15.33,25.47 -6.71,7.83 -15.01,13.98 -24.92,18.37 -9.9,4.47 -21.56,6.71 -34.98,6.71 -3.83,0 -7.82,-0.32 -11.98,-0.96 -4.15,-0.64 -8.78,-1.6 -13.89,-2.87l0 -46.01z"/>
 </g>
</svg>
